<svg width="24" height="19" viewBox="0 0 24 19" fill="none" xmlns="http://www.w3.org/2000/svg">
<g filter="url(#filter0_d_102_3344)">
<path d="M18 12.1V11H8.6L9.2 9.9L18.4 9L20 3H7.7L7 0H4V1H6.2L8.3 9.4L7 12V13.5C7 14.3 7.7 15 8.5 15C9.3 15 10 14.3 10 13.5C10 12.7 9.3 12 8.5 12H16V13.5C16 14.3 16.7 15 17.5 15C18.3 15 19 14.3 19 13.5C19 12.8 18.6 12.3 18 12.1V12.1ZM8 4H18.7L17.6 8L9.2 8.9L8 4V4Z" fill="white"/>
</g>
<defs>
<filter id="filter0_d_102_3344" x="0" y="0" width="24" height="23" filterUnits="userSpaceOnUse" color-interpolation-filters="sRGB">
<feFlood flood-opacity="0" result="BackgroundImageFix"/>
<feColorMatrix in="SourceAlpha" type="matrix" values="0 0 0 0 0 0 0 0 0 0 0 0 0 0 0 0 0 0 127 0" result="hardAlpha"/>
<feOffset dy="4"/>
<feGaussianBlur stdDeviation="2"/>
<feComposite in2="hardAlpha" operator="out"/>
<feColorMatrix type="matrix" values="0 0 0 0 0 0 0 0 0 0 0 0 0 0 0 0 0 0 0.25 0"/>
<feBlend mode="normal" in2="BackgroundImageFix" result="effect1_dropShadow_102_3344"/>
<feBlend mode="normal" in="SourceGraphic" in2="effect1_dropShadow_102_3344" result="shape"/>
</filter>
</defs>
</svg>
