<svg width="806" height="800" viewBox="0 0 806 800" fill="none" xmlns="http://www.w3.org/2000/svg">
<path d="M0 400C0 179.086 181.694 0 402.608 0V0C623.521 0 805.215 179.086 805.215 400V400C805.215 620.914 623.521 800 402.608 800V800C181.694 800 0 620.914 0 400V400Z" fill="white"/>
<path fill-rule="evenodd" clip-rule="evenodd" d="M182.243 395.778C299.611 344.974 377.875 311.481 417.035 295.298C528.843 249.095 552.076 241.069 567.219 240.804C570.549 240.745 577.996 241.565 582.82 245.454C586.893 248.738 588.014 253.173 588.55 256.287C589.086 259.4 589.754 266.492 589.223 272.033C583.164 335.283 556.947 488.772 543.609 559.613C537.966 589.588 526.853 599.639 516.095 600.622C492.715 602.76 474.961 585.271 452.316 570.523C416.881 547.446 396.863 533.08 362.468 510.561C322.718 484.536 348.486 470.232 371.139 446.856C377.068 440.738 480.081 347.646 482.075 339.201C482.324 338.145 482.556 334.208 480.202 332.129C477.848 330.05 474.373 330.761 471.866 331.327C468.312 332.128 411.705 369.301 302.044 442.846C285.976 453.808 271.422 459.149 258.383 458.869C244.007 458.56 216.355 450.793 195.799 444.155C170.586 436.012 150.547 431.707 152.291 417.878C153.2 410.675 163.184 403.308 182.243 395.778Z" fill="url(#paint0_linear_9_478)"/>
<defs>
<linearGradient id="paint0_linear_9_478" x1="582.17" y1="243.201" x2="345.505" y2="502.333" gradientUnits="userSpaceOnUse">
<stop stop-color="#475361"/>
<stop offset="1" stop-color="#1D1D1D"/>
</linearGradient>
</defs>
</svg>
